<svg width="380" height="32" viewBox="0 0 380 32" fill="none" xmlns="http://www.w3.org/2000/svg">
<path d="M45.756 20.74C47.796 19.372 49.428 18.016 50.652 16.672C51.876 15.316 52.488 14.056 52.488 12.892C52.488 12.172 52.302 11.596 51.93 11.164C51.57 10.72 50.982 10.498 50.166 10.498C49.326 10.498 48.69 10.768 48.258 11.308C47.826 11.836 47.586 12.568 47.538 13.504H45.918C46.002 12.088 46.44 11.002 47.232 10.246C48.024 9.478 49.044 9.094 50.292 9.094C51.48 9.094 52.422 9.412 53.118 10.048C53.814 10.684 54.162 11.584 54.162 12.748C54.162 13.708 53.85 14.686 53.226 15.682C52.614 16.666 51.84 17.584 50.904 18.436C49.98 19.276 49.026 19.99 48.042 20.578H54.486V21.928H45.756V20.74ZM56.2389 15.574C56.2389 17.614 56.5749 19.204 57.2469 20.344C57.9189 21.484 59.0829 22.054 60.7389 22.054C62.3949 22.054 63.5589 21.484 64.2309 20.344C64.9149 19.204 65.2569 17.614 65.2569 15.574C65.2569 13.558 64.9149 11.98 64.2309 10.84C63.5589 9.7 62.3949 9.13 60.7389 9.13C59.0829 9.13 57.9189 9.7 57.2469 10.84C56.5749 11.968 56.2389 13.546 56.2389 15.574ZM63.6369 15.574C63.6369 16.618 63.5589 17.494 63.4029 18.202C63.2589 18.898 62.9769 19.456 62.5569 19.876C62.1369 20.296 61.5309 20.506 60.7389 20.506C59.9589 20.506 59.3589 20.296 58.9389 19.876C58.5189 19.456 58.2309 18.898 58.0749 18.202C57.9309 17.494 57.8589 16.618 57.8589 15.574C57.8589 14.542 57.9309 13.678 58.0749 12.982C58.2309 12.286 58.5189 11.734 58.9389 11.326C59.3589 10.906 59.9589 10.696 60.7389 10.696C61.5309 10.696 62.1369 10.906 62.5569 11.326C62.9769 11.734 63.2589 12.286 63.4029 12.982C63.5589 13.678 63.6369 14.542 63.6369 15.574ZM69.4915 9.13C70.2475 9.13 70.8715 9.376 71.3635 9.868C71.8675 10.348 72.1195 10.99 72.1195 11.794C72.1195 12.598 71.8735 13.24 71.3815 13.72C70.8895 14.2 70.2595 14.44 69.4915 14.44C68.7235 14.44 68.0935 14.2 67.6015 13.72C67.1095 13.24 66.8635 12.598 66.8635 11.794C66.8635 10.99 67.1095 10.348 67.6015 9.868C68.0935 9.376 68.7235 9.13 69.4915 9.13ZM76.6555 9.292L69.3655 22H67.7455L75.0355 9.292H76.6555ZM68.0155 11.794C68.0155 12.274 68.1475 12.664 68.4115 12.964C68.6875 13.264 69.0415 13.414 69.4735 13.414C69.9175 13.414 70.2775 13.264 70.5535 12.964C70.8295 12.664 70.9675 12.274 70.9675 11.794C70.9675 11.314 70.8295 10.924 70.5535 10.624C70.2775 10.324 69.9175 10.174 69.4735 10.174C69.0415 10.174 68.6875 10.324 68.4115 10.624C68.1475 10.924 68.0155 11.314 68.0155 11.794ZM74.9275 16.852C75.6955 16.852 76.3195 17.092 76.7995 17.572C77.2915 18.052 77.5375 18.694 77.5375 19.498C77.5375 20.302 77.2915 20.95 76.7995 21.442C76.3195 21.922 75.6955 22.162 74.9275 22.162C74.1715 22.162 73.5415 21.922 73.0375 21.442C72.5455 20.95 72.2995 20.302 72.2995 19.498C72.2995 18.694 72.5455 18.052 73.0375 17.572C73.5295 17.092 74.1595 16.852 74.9275 16.852ZM73.4515 19.498C73.4515 19.978 73.5835 20.368 73.8475 20.668C74.1235 20.968 74.4835 21.118 74.9275 21.118C75.3595 21.118 75.7075 20.968 75.9715 20.668C76.2475 20.368 76.3855 19.978 76.3855 19.498C76.3855 19.018 76.2475 18.628 75.9715 18.328C75.7075 18.028 75.3595 17.878 74.9275 17.878C74.4835 17.878 74.1235 18.028 73.8475 18.328C73.5835 18.628 73.4515 19.018 73.4515 19.498ZM214.74 10.84V9.31H218.376V22H216.648V10.84H214.74ZM238.143 9.526V22H236.505V12.046L232.527 22H231.069L227.073 12.082V22H225.435V9.526H227.397L231.825 20.002L236.181 9.526H238.143ZM246.577 9.148C247.753 9.148 248.809 9.424 249.745 9.976C250.693 10.528 251.437 11.302 251.977 12.298C252.517 13.282 252.787 14.398 252.787 15.646C252.787 16.894 252.517 18.016 251.977 19.012C251.437 19.996 250.693 20.764 249.745 21.316C248.809 21.868 247.753 22.144 246.577 22.144C245.401 22.144 244.333 21.868 243.373 21.316C242.425 20.764 241.681 19.996 241.141 19.012C240.601 18.016 240.331 16.894 240.331 15.646C240.331 14.398 240.601 13.282 241.141 12.298C241.681 11.302 242.425 10.528 243.373 9.976C244.333 9.424 245.401 9.148 246.577 9.148ZM246.577 10.678C245.701 10.678 244.915 10.882 244.219 11.29C243.535 11.686 242.995 12.262 242.599 13.018C242.215 13.762 242.023 14.638 242.023 15.646C242.023 16.642 242.215 17.518 242.599 18.274C242.995 19.03 243.535 19.612 244.219 20.02C244.915 20.416 245.701 20.614 246.577 20.614C247.441 20.614 248.215 20.41 248.899 20.002C249.595 19.594 250.135 19.018 250.519 18.274C250.915 17.518 251.113 16.642 251.113 15.646C251.113 14.638 250.915 13.762 250.519 13.018C250.135 12.262 249.595 11.686 248.899 11.29C248.215 10.882 247.441 10.678 246.577 10.678ZM264.866 22H263.228L256.64 11.974V22H255.002V9.31H256.64L263.228 19.354V9.31H264.866V22ZM275.276 9.31V10.642H271.694V22H270.056V10.642H266.474V9.31H275.276ZM286.642 9.31V22H284.986V16.132H278.542V22H276.904V9.31H278.542V14.8H284.986V9.31H286.642Z" fill="white"/>
<path d="M94.588 15.646C94.588 16.93 94.33 18.052 93.814 19.012C93.298 19.96 92.536 20.698 91.528 21.226C90.532 21.742 89.332 22 87.928 22H83.896V9.31H87.928C89.332 9.31 90.532 9.568 91.528 10.084C92.536 10.588 93.298 11.32 93.814 12.28C94.33 13.228 94.588 14.35 94.588 15.646ZM87.802 20.524C89.458 20.524 90.724 20.098 91.6 19.246C92.476 18.394 92.914 17.194 92.914 15.646C92.914 14.098 92.476 12.898 91.6 12.046C90.736 11.182 89.47 10.75 87.802 10.75H85.534V20.524H87.802ZM98.4364 9.31V22H96.7984V9.31H98.4364ZM109.098 18.706C109.098 19.306 108.954 19.864 108.666 20.38C108.378 20.896 107.94 21.316 107.352 21.64C106.764 21.964 106.038 22.126 105.174 22.126C104.334 22.126 103.584 21.976 102.924 21.676C102.276 21.364 101.754 20.944 101.358 20.416C100.974 19.876 100.752 19.264 100.692 18.58H102.438C102.474 18.94 102.594 19.294 102.798 19.642C103.014 19.978 103.314 20.26 103.698 20.488C104.094 20.704 104.568 20.812 105.12 20.812C105.84 20.812 106.392 20.62 106.776 20.236C107.16 19.852 107.352 19.36 107.352 18.76C107.352 18.244 107.214 17.824 106.938 17.5C106.674 17.176 106.344 16.924 105.948 16.744C105.552 16.552 105.012 16.348 104.328 16.132C103.524 15.868 102.876 15.622 102.384 15.394C101.904 15.154 101.49 14.8 101.142 14.332C100.806 13.864 100.638 13.246 100.638 12.478C100.638 11.818 100.794 11.236 101.106 10.732C101.43 10.228 101.886 9.838 102.474 9.562C103.074 9.286 103.776 9.148 104.58 9.148C105.828 9.148 106.818 9.454 107.55 10.066C108.282 10.666 108.708 11.434 108.828 12.37H107.064C106.968 11.866 106.71 11.422 106.29 11.038C105.87 10.654 105.3 10.462 104.58 10.462C103.92 10.462 103.392 10.636 102.996 10.984C102.6 11.32 102.402 11.8 102.402 12.424C102.402 12.916 102.528 13.318 102.78 13.63C103.044 13.93 103.368 14.17 103.752 14.35C104.136 14.518 104.664 14.71 105.336 14.926C106.152 15.19 106.806 15.442 107.298 15.682C107.802 15.922 108.228 16.288 108.576 16.78C108.924 17.26 109.098 17.902 109.098 18.706ZM116.916 9.184C118.464 9.184 119.742 9.568 120.75 10.336C121.758 11.092 122.454 12.13 122.838 13.45H121.11C120.786 12.61 120.264 11.944 119.544 11.452C118.824 10.948 117.942 10.696 116.898 10.696C116.07 10.696 115.326 10.9 114.666 11.308C114.018 11.704 113.502 12.28 113.118 13.036C112.746 13.78 112.56 14.656 112.56 15.664C112.56 16.66 112.746 17.53 113.118 18.274C113.502 19.018 114.018 19.594 114.666 20.002C115.326 20.398 116.07 20.596 116.898 20.596C117.942 20.596 118.824 20.35 119.544 19.858C120.264 19.354 120.786 18.682 121.11 17.842H122.838C122.454 19.162 121.758 20.206 120.75 20.974C119.742 21.73 118.464 22.108 116.916 22.108C115.728 22.108 114.678 21.838 113.766 21.298C112.854 20.746 112.14 19.984 111.624 19.012C111.12 18.028 110.868 16.912 110.868 15.664C110.868 14.404 111.12 13.282 111.624 12.298C112.14 11.314 112.854 10.552 113.766 10.012C114.678 9.46 115.728 9.184 116.916 9.184ZM130.843 9.148C132.019 9.148 133.075 9.424 134.011 9.976C134.959 10.528 135.703 11.302 136.243 12.298C136.783 13.282 137.053 14.398 137.053 15.646C137.053 16.894 136.783 18.016 136.243 19.012C135.703 19.996 134.959 20.764 134.011 21.316C133.075 21.868 132.019 22.144 130.843 22.144C129.667 22.144 128.599 21.868 127.639 21.316C126.691 20.764 125.947 19.996 125.407 19.012C124.867 18.016 124.597 16.894 124.597 15.646C124.597 14.398 124.867 13.282 125.407 12.298C125.947 11.302 126.691 10.528 127.639 9.976C128.599 9.424 129.667 9.148 130.843 9.148ZM130.843 10.678C129.967 10.678 129.181 10.882 128.485 11.29C127.801 11.686 127.261 12.262 126.865 13.018C126.481 13.762 126.289 14.638 126.289 15.646C126.289 16.642 126.481 17.518 126.865 18.274C127.261 19.03 127.801 19.612 128.485 20.02C129.181 20.416 129.967 20.614 130.843 20.614C131.707 20.614 132.481 20.41 133.165 20.002C133.861 19.594 134.401 19.018 134.785 18.274C135.181 17.518 135.379 16.642 135.379 15.646C135.379 14.638 135.181 13.762 134.785 13.018C134.401 12.262 133.861 11.686 133.165 11.29C132.481 10.882 131.707 10.678 130.843 10.678ZM140.815 9.31V16.924C140.815 18.172 141.091 19.096 141.643 19.696C142.195 20.284 142.957 20.578 143.929 20.578C144.889 20.578 145.639 20.278 146.179 19.678C146.719 19.078 146.989 18.16 146.989 16.924V9.31H148.627V16.924C148.627 18.652 148.195 19.954 147.331 20.83C146.479 21.694 145.333 22.126 143.893 22.126C142.465 22.126 141.319 21.694 140.455 20.83C139.603 19.954 139.177 18.652 139.177 16.924V9.31H140.815ZM161.032 22H159.394L152.806 11.974V22H151.168V9.31H152.806L159.394 19.354V9.31H161.032V22ZM171.442 9.31V10.642H167.86V22H166.222V10.642H162.64V9.31H171.442ZM184.699 9.31V10.642H179.155V15.034H183.853V16.312H179.155V22H177.517V9.31H184.699ZM192.454 9.148C193.63 9.148 194.686 9.424 195.622 9.976C196.57 10.528 197.314 11.302 197.854 12.298C198.394 13.282 198.664 14.398 198.664 15.646C198.664 16.894 198.394 18.016 197.854 19.012C197.314 19.996 196.57 20.764 195.622 21.316C194.686 21.868 193.63 22.144 192.454 22.144C191.278 22.144 190.21 21.868 189.25 21.316C188.302 20.764 187.558 19.996 187.018 19.012C186.478 18.016 186.208 16.894 186.208 15.646C186.208 14.398 186.478 13.282 187.018 12.298C187.558 11.302 188.302 10.528 189.25 9.976C190.21 9.424 191.278 9.148 192.454 9.148ZM192.454 10.678C191.578 10.678 190.792 10.882 190.096 11.29C189.412 11.686 188.872 12.262 188.476 13.018C188.092 13.762 187.9 14.638 187.9 15.646C187.9 16.642 188.092 17.518 188.476 18.274C188.872 19.03 189.412 19.612 190.096 20.02C190.792 20.416 191.578 20.614 192.454 20.614C193.318 20.614 194.092 20.41 194.776 20.002C195.472 19.594 196.012 19.018 196.396 18.274C196.792 17.518 196.99 16.642 196.99 15.646C196.99 14.638 196.792 13.762 196.396 13.018C196.012 12.262 195.472 11.686 194.776 11.29C194.092 10.882 193.318 10.678 192.454 10.678ZM207.61 22L204.298 16.816H202.516V22H200.878V9.31H205.054C206.494 9.31 207.574 9.658 208.294 10.354C209.014 11.038 209.374 11.95 209.374 13.09C209.374 14.122 209.086 14.956 208.51 15.592C207.934 16.216 207.1 16.606 206.008 16.762L209.464 22H207.61ZM202.516 15.628H204.91C206.77 15.628 207.7 14.812 207.7 13.18C207.7 11.548 206.77 10.732 204.91 10.732H202.516V15.628ZM301.143 19.066H295.563L294.501 22H292.737L297.435 9.544H299.289L303.969 22H302.205L301.143 19.066ZM300.675 17.788L298.353 11.38L296.031 17.788H300.675ZM311.243 9.184C312.791 9.184 314.069 9.568 315.077 10.336C316.085 11.092 316.781 12.13 317.165 13.45H315.437C315.113 12.61 314.591 11.944 313.871 11.452C313.151 10.948 312.269 10.696 311.225 10.696C310.397 10.696 309.653 10.9 308.993 11.308C308.345 11.704 307.829 12.28 307.445 13.036C307.073 13.78 306.887 14.656 306.887 15.664C306.887 16.66 307.073 17.53 307.445 18.274C307.829 19.018 308.345 19.594 308.993 20.002C309.653 20.398 310.397 20.596 311.225 20.596C312.269 20.596 313.151 20.35 313.871 19.858C314.591 19.354 315.113 18.682 315.437 17.842H317.165C316.781 19.162 316.085 20.206 315.077 20.974C314.069 21.73 312.791 22.108 311.243 22.108C310.055 22.108 309.005 21.838 308.093 21.298C307.181 20.746 306.467 19.984 305.951 19.012C305.447 18.028 305.195 16.912 305.195 15.664C305.195 14.404 305.447 13.282 305.951 12.298C306.467 11.314 307.181 10.552 308.093 10.012C309.005 9.46 310.055 9.184 311.243 9.184ZM324.971 9.184C326.519 9.184 327.797 9.568 328.805 10.336C329.813 11.092 330.509 12.13 330.893 13.45H329.165C328.841 12.61 328.319 11.944 327.599 11.452C326.879 10.948 325.997 10.696 324.953 10.696C324.125 10.696 323.381 10.9 322.721 11.308C322.073 11.704 321.557 12.28 321.173 13.036C320.801 13.78 320.615 14.656 320.615 15.664C320.615 16.66 320.801 17.53 321.173 18.274C321.557 19.018 322.073 19.594 322.721 20.002C323.381 20.398 324.125 20.596 324.953 20.596C325.997 20.596 326.879 20.35 327.599 19.858C328.319 19.354 328.841 18.682 329.165 17.842H330.893C330.509 19.162 329.813 20.206 328.805 20.974C327.797 21.73 326.519 22.108 324.971 22.108C323.783 22.108 322.733 21.838 321.821 21.298C320.909 20.746 320.195 19.984 319.679 19.012C319.175 18.028 318.923 16.912 318.923 15.664C318.923 14.404 319.175 13.282 319.679 12.298C320.195 11.314 320.909 10.552 321.821 10.012C322.733 9.46 323.783 9.184 324.971 9.184ZM338.898 9.148C340.074 9.148 341.13 9.424 342.066 9.976C343.014 10.528 343.758 11.302 344.298 12.298C344.838 13.282 345.108 14.398 345.108 15.646C345.108 16.894 344.838 18.016 344.298 19.012C343.758 19.996 343.014 20.764 342.066 21.316C341.13 21.868 340.074 22.144 338.898 22.144C337.722 22.144 336.654 21.868 335.694 21.316C334.746 20.764 334.002 19.996 333.462 19.012C332.922 18.016 332.652 16.894 332.652 15.646C332.652 14.398 332.922 13.282 333.462 12.298C334.002 11.302 334.746 10.528 335.694 9.976C336.654 9.424 337.722 9.148 338.898 9.148ZM338.898 10.678C338.022 10.678 337.236 10.882 336.54 11.29C335.856 11.686 335.316 12.262 334.92 13.018C334.536 13.762 334.344 14.638 334.344 15.646C334.344 16.642 334.536 17.518 334.92 18.274C335.316 19.03 335.856 19.612 336.54 20.02C337.236 20.416 338.022 20.614 338.898 20.614C339.762 20.614 340.536 20.41 341.22 20.002C341.916 19.594 342.456 19.018 342.84 18.274C343.236 17.518 343.434 16.642 343.434 15.646C343.434 14.638 343.236 13.762 342.84 13.018C342.456 12.262 341.916 11.686 341.22 11.29C340.536 10.882 339.762 10.678 338.898 10.678ZM348.87 9.31V16.924C348.87 18.172 349.146 19.096 349.698 19.696C350.25 20.284 351.012 20.578 351.984 20.578C352.944 20.578 353.694 20.278 354.234 19.678C354.774 19.078 355.044 18.16 355.044 16.924V9.31H356.682V16.924C356.682 18.652 356.25 19.954 355.386 20.83C354.534 21.694 353.388 22.126 351.948 22.126C350.52 22.126 349.374 21.694 348.51 20.83C347.658 19.954 347.232 18.652 347.232 16.924V9.31H348.87ZM369.086 22H367.448L360.86 11.974V22H359.222V9.31H360.86L367.448 19.354V9.31H369.086V22ZM379.496 9.31V10.642H375.914V22H374.276V10.642H370.694V9.31H379.496Z" fill="white" fill-opacity="0.6"/>
<path opacity="0.4" d="M15.9988 29.3309C14.9735 29.3309 13.9495 28.9416 13.1668 28.1643L12.1935 27.1909C11.8161 26.8149 11.3108 26.6069 10.7748 26.6056H9.40547C7.19214 26.6056 5.39081 24.8043 5.39081 22.5909V21.2203C5.38947 20.6856 5.18147 20.1803 4.80414 19.8003L3.84681 18.8443C2.27881 17.2856 2.27214 14.7376 3.83214 13.1683L4.80547 12.1936C5.18147 11.8163 5.38947 11.3109 5.39081 10.7749V9.40693C5.39081 7.19227 7.19214 5.39093 9.40547 5.39093H10.7761C11.3108 5.39093 11.8148 5.18293 12.1948 4.80293L13.1535 3.84693C14.7121 2.27893 17.2588 2.27093 18.8295 3.83227L19.8028 4.8056C20.1815 5.18293 20.6855 5.39093 21.2201 5.39093H22.5908C24.8041 5.39093 26.6055 7.19227 26.6055 9.40693V10.7763C26.6068 11.3109 26.8148 11.8163 27.1921 12.1963L28.1495 13.1536C28.9081 13.9083 29.3281 14.9136 29.3321 15.9869C29.3348 17.0536 28.9241 18.0576 28.1761 18.8163C28.1628 18.8296 28.1508 18.8443 28.1375 18.8563L27.1908 19.8029C26.8148 20.1803 26.6068 20.6856 26.6055 21.2216V22.5909C26.6055 24.8043 24.8041 26.6056 22.5908 26.6056H21.2201C20.6855 26.6069 20.1801 26.8149 19.8015 27.1923L18.8428 28.1496C18.0615 28.9363 17.0295 29.3309 15.9988 29.3309Z" fill="#393939"/>
<path fill-rule="evenodd" clip-rule="evenodd" d="M13.3904 13.4012C13.1704 13.6212 12.8851 13.7399 12.5691 13.7399C12.2731 13.7399 11.9824 13.6185 11.7491 13.3999C11.5277 13.1799 11.4024 12.8785 11.4024 12.5732C11.4024 12.2825 11.5251 11.9839 11.7411 11.7532C11.8597 11.6332 12.0011 11.5425 12.1424 11.4945C12.5451 11.3105 13.0797 11.4185 13.3971 11.7519C13.5104 11.8652 13.5971 11.9892 13.6544 12.1185C13.7171 12.2572 13.7491 12.4145 13.7491 12.5732C13.7491 12.8905 13.6224 13.1852 13.3904 13.4012ZM20.254 11.7464C19.7993 11.2931 19.0593 11.2931 18.6047 11.7464L11.7513 18.5997C11.2967 19.0544 11.2967 19.7944 11.7513 20.2504C11.9727 20.4704 12.2647 20.5917 12.5767 20.5917C12.8887 20.5917 13.1807 20.4704 13.4007 20.2504L20.254 13.3971C20.7087 12.9411 20.7087 12.2024 20.254 11.7464ZM19.8744 18.3519C19.4424 18.1705 18.9304 18.2692 18.5891 18.6105C18.5184 18.6932 18.4184 18.8212 18.3504 18.9719C18.2784 19.1345 18.2691 19.3092 18.2691 19.4265C18.2691 19.5439 18.2784 19.7172 18.3504 19.8799C18.4171 20.0292 18.4971 20.1505 18.6024 20.2559C18.8437 20.4799 19.1237 20.5932 19.4357 20.5932C19.7317 20.5932 20.0224 20.4732 20.2611 20.2505C20.4731 20.0385 20.5891 19.7452 20.5891 19.4265C20.5891 19.1065 20.4731 18.8145 20.2597 18.6012C20.1424 18.4852 20.0011 18.3945 19.8744 18.3519Z" fill="#00F6FF"/>
</svg>
